<?xml version="1.0" encoding="UTF-8" standalone="no"?><!DOCTYPE svg PUBLIC "-//W3C//DTD SVG 1.1//EN" "http://www.w3.org/Graphics/SVG/1.1/DTD/svg11.dtd"><svg width="100%" height="100%" viewBox="0 0 1937 703" version="1.1" xmlns="http://www.w3.org/2000/svg" xmlns:xlink="http://www.w3.org/1999/xlink" xml:space="preserve" xmlns:serif="http://www.serif.com/" style="fill-rule:evenodd;clip-rule:evenodd;stroke-linecap:round;stroke-linejoin:round;stroke-miterlimit:1.5;"><g><path d="M5.017,329.599c-0,200.669 24.08,200.669 24.08,-0c-0,-200.669 24.08,-200.669 24.08,-0" style="fill:none;stroke:#adbac7;stroke-width:4.17px;"/><path d="M197.659,329.599c-0,200.669 24.08,200.669 24.08,-0c0,-200.669 24.08,-200.669 24.08,-0" style="fill:none;stroke:#adbac7;stroke-width:4.17px;"/><path d="M390.301,329.599c0,200.669 24.08,200.669 24.08,-0c0,-200.669 24.081,-200.669 24.081,-0" style="fill:none;stroke:#adbac7;stroke-width:4.17px;"/><path d="M582.943,329.599c0,200.669 24.08,200.669 24.08,-0c0,-200.669 24.081,-200.669 24.081,-0" style="fill:none;stroke:#adbac7;stroke-width:4.17px;"/><path d="M775.585,329.599c0,200.669 24.081,200.669 24.081,-0c-0,-200.669 24.08,-200.669 24.08,-0" style="fill:none;stroke:#adbac7;stroke-width:4.17px;"/><path d="M968.227,329.599c0,200.669 24.081,200.669 24.081,-0c-0,-200.669 24.08,-200.669 24.08,-0" style="fill:none;stroke:#adbac7;stroke-width:4.17px;"/><path d="M1160.87,329.599c-0,200.669 24.08,200.669 24.08,-0c-0,-200.669 24.08,-200.669 24.08,-0" style="fill:none;stroke:#adbac7;stroke-width:4.17px;"/><path d="M1353.51,329.599c-0,200.669 24.08,200.669 24.08,-0c-0,-200.669 24.08,-200.669 24.08,-0" style="fill:none;stroke:#adbac7;stroke-width:4.17px;"/><path d="M101.338,329.599c-0,200.669 24.08,200.669 24.08,-0c0,-200.669 24.08,-200.669 24.08,-0" style="fill:none;stroke:#adbac7;stroke-width:4.17px;"/><path d="M293.98,329.599c-0,200.669 24.08,200.669 24.08,-0c0,-200.669 24.08,-200.669 24.08,-0" style="fill:none;stroke:#adbac7;stroke-width:4.17px;"/><path d="M486.622,329.599c0,200.669 24.08,200.669 24.08,-0c0,-200.669 24.081,-200.669 24.081,-0" style="fill:none;stroke:#adbac7;stroke-width:4.17px;"/><path d="M679.264,329.599c0,200.669 24.08,200.669 24.08,-0c0,-200.669 24.081,-200.669 24.081,-0" style="fill:none;stroke:#adbac7;stroke-width:4.17px;"/><path d="M871.906,329.599c0,200.669 24.081,200.669 24.081,-0c-0,-200.669 24.08,-200.669 24.08,-0" style="fill:none;stroke:#adbac7;stroke-width:4.17px;"/><path d="M1064.55,329.599c0,200.669 24.081,200.669 24.081,-0c-0,-200.669 24.08,-200.669 24.08,-0" style="fill:none;stroke:#adbac7;stroke-width:4.17px;"/><path d="M1257.19,329.599c-0,200.669 24.08,200.669 24.08,-0c-0,-200.669 24.08,-200.669 24.08,-0" style="fill:none;stroke:#adbac7;stroke-width:4.17px;"/><path d="M1449.83,329.599c-0,200.669 24.08,200.669 24.08,-0c0,-200.669 24.08,-200.669 24.08,-0" style="fill:none;stroke:#adbac7;stroke-width:4.17px;"/><path d="M53.177,329.599c0,200.669 24.081,200.669 24.081,-0c-0,-200.669 24.08,-200.669 24.08,-0" style="fill:none;stroke:#adbac7;stroke-width:4.17px;"/><path d="M245.819,329.599c0,200.669 24.081,200.669 24.081,-0c-0,-200.669 24.08,-200.669 24.08,-0" style="fill:none;stroke:#adbac7;stroke-width:4.17px;"/><path d="M438.462,329.599c-0,200.669 24.08,200.669 24.08,-0c-0,-200.669 24.08,-200.669 24.08,-0" style="fill:none;stroke:#adbac7;stroke-width:4.17px;"/><path d="M631.104,329.599c-0,200.669 24.08,200.669 24.08,-0c-0,-200.669 24.08,-200.669 24.08,-0" style="fill:none;stroke:#adbac7;stroke-width:4.17px;"/><path d="M823.746,329.599c-0,200.669 24.08,200.669 24.08,-0c0,-200.669 24.08,-200.669 24.08,-0" style="fill:none;stroke:#adbac7;stroke-width:4.17px;"/><path d="M1016.39,329.599c-0,200.669 24.08,200.669 24.08,-0c0,-200.669 24.08,-200.669 24.08,-0" style="fill:none;stroke:#adbac7;stroke-width:4.17px;"/><path d="M1209.03,329.599c0,200.669 24.08,200.669 24.08,-0c0,-200.669 24.081,-200.669 24.081,-0" style="fill:none;stroke:#adbac7;stroke-width:4.17px;"/><path d="M1401.67,329.599c0,200.669 24.081,200.669 24.081,-0c-0,-200.669 24.08,-200.669 24.08,-0" style="fill:none;stroke:#adbac7;stroke-width:4.17px;"/><path d="M149.498,329.599c0,200.669 24.081,200.669 24.081,-0c-0,-200.669 24.08,-200.669 24.08,-0" style="fill:none;stroke:#adbac7;stroke-width:4.17px;"/><path d="M342.14,329.599c0,200.669 24.081,200.669 24.081,-0c-0,-200.669 24.08,-200.669 24.08,-0" style="fill:none;stroke:#adbac7;stroke-width:4.17px;"/><path d="M534.783,329.599c-0,200.669 24.08,200.669 24.08,-0c-0,-200.669 24.08,-200.669 24.08,-0" style="fill:none;stroke:#adbac7;stroke-width:4.17px;"/><path d="M727.425,329.599c-0,200.669 24.08,200.669 24.08,-0c0,-200.669 24.08,-200.669 24.08,-0" style="fill:none;stroke:#adbac7;stroke-width:4.17px;"/><path d="M920.067,329.599c-0,200.669 24.08,200.669 24.08,-0c0,-200.669 24.08,-200.669 24.08,-0" style="fill:none;stroke:#adbac7;stroke-width:4.17px;"/><path d="M1112.71,329.599c0,200.669 24.08,200.669 24.08,-0c0,-200.669 24.081,-200.669 24.081,-0" style="fill:none;stroke:#adbac7;stroke-width:4.17px;"/><path d="M1305.35,329.599c0,200.669 24.08,200.669 24.08,-0c0,-200.669 24.081,-200.669 24.081,-0" style="fill:none;stroke:#adbac7;stroke-width:4.17px;"/><path d="M1497.99,329.599c0,200.669 24.081,200.669 24.081,-0c-0,-200.669 24.08,-200.669 24.08,-0" style="fill:none;stroke:#adbac7;stroke-width:4.17px;"/><path d="M1546.15,329.599c-0,200.669 24.08,200.669 24.08,-0c0,-200.669 24.08,-200.669 24.08,-0" style="fill:none;stroke:#adbac7;stroke-width:4.17px;"/><path d="M1594.31,329.599c0,200.669 12.041,200.669 12.041,-0c-0,-200.669 12.04,-200.669 12.04,-0" style="fill:none;stroke:#adbac7;stroke-width:4.17px;"/><path d="M1618.39,329.599c-0,200.669 12.04,200.669 12.04,-0c-0,-200.669 12.04,-200.669 12.04,-0" style="fill:none;stroke:#adbac7;stroke-width:4.17px;"/><path d="M1642.48,329.599c-0,200.669 12.04,200.669 12.04,-0c0,-200.669 12.04,-200.669 12.04,-0" style="fill:none;stroke:#adbac7;stroke-width:4.17px;"/><path d="M1666.56,329.599c0,200.669 12.04,200.669 12.04,-0c0,-200.669 12.04,-200.669 12.04,-0" style="fill:none;stroke:#adbac7;stroke-width:4.17px;"/><path d="M1690.63,329.599c0,200.669 12.041,200.669 12.041,-0c-0,-200.669 12.04,-200.669 12.04,-0" style="fill:none;stroke:#adbac7;stroke-width:4.17px;"/><path d="M1714.72,329.599c-0,200.669 12.04,200.669 12.04,-0c-0,-200.669 12.04,-200.669 12.04,-0" style="fill:none;stroke:#adbac7;stroke-width:4.17px;"/><path d="M1738.8,329.599c-0,200.669 12.04,200.669 12.04,-0c0,-200.669 12.04,-200.669 12.04,-0" style="fill:none;stroke:#adbac7;stroke-width:4.17px;"/><path d="M1762.88,329.599c0,200.669 12.04,200.669 12.04,-0c0,-200.669 12.041,-200.669 12.041,-0" style="fill:none;stroke:#adbac7;stroke-width:4.17px;"/><path d="M1786.96,329.599c-0,200.669 12.04,200.669 12.04,-0c-0,-200.669 12.04,-200.669 12.04,-0" style="fill:none;stroke:#adbac7;stroke-width:4.17px;"/><path d="M1811.04,329.599c-0,200.669 12.04,200.669 12.04,-0c-0,-200.669 12.04,-200.669 12.04,-0" style="fill:none;stroke:#adbac7;stroke-width:4.17px;"/><path d="M1835.12,329.599c0,200.669 12.04,200.669 12.04,-0c0,-200.669 12.04,-200.669 12.04,-0" style="fill:none;stroke:#adbac7;stroke-width:4.17px;"/><path d="M1859.2,329.599c0,200.669 12.04,200.669 12.04,-0c0,-200.669 12.041,-200.669 12.041,-0" style="fill:none;stroke:#adbac7;stroke-width:4.17px;"/><path d="M1883.28,329.599c-0,200.669 24.08,200.669 24.08,-0" style="fill:none;stroke:#adbac7;stroke-width:4.17px;"/><path d="M1907.36,329.599c-0,-200.669 12.04,-200.669 12.04,-0c-0,200.669 12.04,200.669 12.04,-0" style="fill:none;stroke:#adbac7;stroke-width:4.17px;"/></g><g><path d="M197.659,154.515l-0,387.291" style="fill:none;stroke:#e5534b;stroke-width:2.08px;"/><path d="M5.017,110.368l-0,431.438" style="fill:none;stroke:#e5534b;stroke-width:2.08px;"/><path d="M390.301,154.515l0,387.291" style="fill:none;stroke:#e5534b;stroke-width:2.08px;"/><path d="M582.943,154.515l0,387.291" style="fill:none;stroke:#e5534b;stroke-width:2.08px;"/><path d="M775.585,154.515l0,387.291" style="fill:none;stroke:#e5534b;stroke-width:2.08px;"/><path d="M968.227,154.515l0,387.291" style="fill:none;stroke:#e5534b;stroke-width:2.08px;"/><path d="M1160.87,154.515l-0,387.291" style="fill:none;stroke:#e5534b;stroke-width:2.08px;"/><path d="M1353.51,154.515l-0,387.291" style="fill:none;stroke:#e5534b;stroke-width:2.08px;"/><path d="M1546.15,110.368l-0,431.438" style="fill:none;stroke:#46954a;stroke-width:2.08px;"/><path d="M1738.8,154.515l-0,387.291" style="fill:none;stroke:#e5534b;stroke-width:2.08px;"/><path d="M1931.44,154.515l0,387.291" style="fill:none;stroke:#e5534b;stroke-width:2.08px;"/></g><g><path d="M221.739,503.679l0,-348.161" style="fill:none;stroke:#316dca;stroke-width:2.08px;"/><path d="M438.462,503.679l-0,-348.161" style="fill:none;stroke:#316dca;stroke-width:2.08px;"/><path d="M655.184,503.679l-0,-348.161" style="fill:none;stroke:#316dca;stroke-width:2.08px;"/><path d="M871.906,503.679l0,-348.161" style="fill:none;stroke:#316dca;stroke-width:2.08px;"/><path d="M1088.63,503.679l-0,-348.161" style="fill:none;stroke:#316dca;stroke-width:2.08px;"/><path d="M1305.35,503.679l0,-348.161" style="fill:none;stroke:#316dca;stroke-width:2.08px;"/><path d="M1522.07,503.679l-0,-348.161" style="fill:none;stroke:#316dca;stroke-width:2.08px;"/><path d="M29.097,503.679l-0,-348.161" style="fill:none;stroke:#316dca;stroke-width:2.08px;"/><path d="M245.819,503.679l0,-348.161" style="fill:none;stroke:#316dca;stroke-width:2.08px;"/><path d="M462.542,503.679l-0,-348.161" style="fill:none;stroke:#316dca;stroke-width:2.08px;"/><path d="M679.264,503.679l0,-348.161" style="fill:none;stroke:#316dca;stroke-width:2.08px;"/><path d="M895.987,503.679l-0,-348.161" style="fill:none;stroke:#316dca;stroke-width:2.08px;"/><path d="M1112.71,503.679l0,-348.161" style="fill:none;stroke:#316dca;stroke-width:2.08px;"/><path d="M1329.43,503.679l0,-348.161" style="fill:none;stroke:#316dca;stroke-width:2.08px;"/><path d="M1762.88,503.679l0,-348.161" style="fill:none;stroke:#316dca;stroke-width:2.08px;"/><path d="M53.177,503.679l0,-348.161" style="fill:none;stroke:#316dca;stroke-width:2.08px;"/><path d="M269.9,503.679l-0,-348.161" style="fill:none;stroke:#316dca;stroke-width:2.08px;"/><path d="M486.622,503.679l0,-348.161" style="fill:none;stroke:#316dca;stroke-width:2.08px;"/><path d="M703.344,503.679l0,-348.161" style="fill:none;stroke:#316dca;stroke-width:2.08px;"/><path d="M920.067,503.679l-0,-348.161" style="fill:none;stroke:#316dca;stroke-width:2.08px;"/><path d="M1136.79,503.679l0,-348.161" style="fill:none;stroke:#316dca;stroke-width:2.08px;"/><path d="M1570.23,503.679l0,-348.161" style="fill:none;stroke:#316dca;stroke-width:2.08px;"/><path d="M1786.96,503.679l-0,-348.161" style="fill:none;stroke:#316dca;stroke-width:2.08px;"/><path d="M77.258,503.679l-0,-348.161" style="fill:none;stroke:#316dca;stroke-width:2.08px;"/><path d="M293.98,503.679l-0,-348.161" style="fill:none;stroke:#316dca;stroke-width:2.08px;"/><path d="M510.702,503.679l0,-348.161" style="fill:none;stroke:#316dca;stroke-width:2.08px;"/><path d="M727.425,503.679l-0,-348.161" style="fill:none;stroke:#316dca;stroke-width:2.08px;"/><path d="M944.147,503.679l0,-348.161" style="fill:none;stroke:#316dca;stroke-width:2.08px;"/><path d="M1377.59,503.679l-0,-348.161" style="fill:none;stroke:#316dca;stroke-width:2.08px;"/><path d="M1594.31,503.679l0,-348.161" style="fill:none;stroke:#316dca;stroke-width:2.08px;"/><path d="M1811.04,503.679l-0,-348.161" style="fill:none;stroke:#316dca;stroke-width:2.08px;"/><path d="M101.338,503.679l-0,-348.161" style="fill:none;stroke:#316dca;stroke-width:2.08px;"/><path d="M318.06,503.679l0,-348.161" style="fill:none;stroke:#316dca;stroke-width:2.08px;"/><path d="M534.783,503.679l-0,-348.161" style="fill:none;stroke:#316dca;stroke-width:2.08px;"/><path d="M751.505,503.679l0,-348.161" style="fill:none;stroke:#316dca;stroke-width:2.08px;"/><path d="M1184.95,503.679l-0,-348.161" style="fill:none;stroke:#316dca;stroke-width:2.08px;"/><path d="M1401.67,503.679l0,-348.161" style="fill:none;stroke:#316dca;stroke-width:2.08px;"/><path d="M1618.39,503.679l-0,-348.161" style="fill:none;stroke:#316dca;stroke-width:2.08px;"/><path d="M1835.12,503.679l0,-348.161" style="fill:none;stroke:#316dca;stroke-width:2.08px;"/><path d="M125.418,503.679l0,-348.161" style="fill:none;stroke:#316dca;stroke-width:2.08px;"/><path d="M342.14,503.679l0,-348.161" style="fill:none;stroke:#316dca;stroke-width:2.08px;"/><path d="M558.863,503.679l-0,-348.161" style="fill:none;stroke:#316dca;stroke-width:2.08px;"/><path d="M992.308,503.679l-0,-348.161" style="fill:none;stroke:#316dca;stroke-width:2.08px;"/><path d="M1209.03,503.679l0,-348.161" style="fill:none;stroke:#316dca;stroke-width:2.08px;"/><path d="M1425.75,503.679l-0,-348.161" style="fill:none;stroke:#316dca;stroke-width:2.08px;"/><path d="M1642.48,503.679l-0,-348.161" style="fill:none;stroke:#316dca;stroke-width:2.08px;"/><path d="M1859.2,503.679l0,-348.161" style="fill:none;stroke:#316dca;stroke-width:2.08px;"/><path d="M149.498,503.679l0,-348.161" style="fill:none;stroke:#316dca;stroke-width:2.08px;"/><path d="M366.221,503.679l-0,-348.161" style="fill:none;stroke:#316dca;stroke-width:2.08px;"/><path d="M799.666,503.679l-0,-348.161" style="fill:none;stroke:#316dca;stroke-width:2.08px;"/><path d="M1016.39,503.679l-0,-348.161" style="fill:none;stroke:#316dca;stroke-width:2.08px;"/><path d="M1233.11,503.679l0,-348.161" style="fill:none;stroke:#316dca;stroke-width:2.08px;"/><path d="M1449.83,503.679l-0,-348.161" style="fill:none;stroke:#316dca;stroke-width:2.08px;"/><path d="M1666.56,503.679l0,-348.161" style="fill:none;stroke:#316dca;stroke-width:2.08px;"/><path d="M1883.28,503.679l-0,-348.161" style="fill:none;stroke:#316dca;stroke-width:2.08px;"/><path d="M173.579,503.679l-0,-348.161" style="fill:none;stroke:#316dca;stroke-width:2.08px;"/><path d="M607.023,503.679l0,-348.161" style="fill:none;stroke:#316dca;stroke-width:2.08px;"/><path d="M823.746,503.679l-0,-348.161" style="fill:none;stroke:#316dca;stroke-width:2.08px;"/><path d="M1040.47,503.679l0,-348.161" style="fill:none;stroke:#316dca;stroke-width:2.08px;"/><path d="M1257.19,503.679l-0,-348.161" style="fill:none;stroke:#316dca;stroke-width:2.08px;"/><path d="M1473.91,503.679l0,-348.161" style="fill:none;stroke:#316dca;stroke-width:2.08px;"/><path d="M1690.63,503.679l0,-348.161" style="fill:none;stroke:#316dca;stroke-width:2.08px;"/><path d="M1907.36,503.679l-0,-348.161" style="fill:none;stroke:#316dca;stroke-width:2.08px;"/><path d="M414.381,503.679l0,-348.161" style="fill:none;stroke:#316dca;stroke-width:2.08px;"/><path d="M631.104,503.679l-0,-348.161" style="fill:none;stroke:#316dca;stroke-width:2.08px;"/><path d="M847.826,503.679l0,-348.161" style="fill:none;stroke:#316dca;stroke-width:2.08px;"/><path d="M1064.55,503.679l0,-348.161" style="fill:none;stroke:#316dca;stroke-width:2.08px;"/><path d="M1281.27,503.679l-0,-348.161" style="fill:none;stroke:#316dca;stroke-width:2.08px;"/><path d="M1497.99,503.679l0,-348.161" style="fill:none;stroke:#316dca;stroke-width:2.08px;"/><path d="M1714.72,503.679l-0,-348.161" style="fill:none;stroke:#316dca;stroke-width:2.08px;"/></g><g><g><path d="M5.017,329.599l1926.42,-0" style="fill:none;"/><path d="M5.017,317.47l-0,24.257" style="fill:none;stroke:#444c56;stroke-width:6.06px;stroke-linejoin:miter;stroke-miterlimit:10;"/><path d="M1931.44,317.47l0,24.257" style="fill:none;stroke:#444c56;stroke-width:6.06px;stroke-linejoin:miter;stroke-miterlimit:10;"/><path d="M5.017,329.599l1926.42,-0" style="fill:none;stroke:#444c56;stroke-width:6.06px;"/></g><path d="M29.097,324.582l-0,10.033" style="fill:none;stroke:#444c56;stroke-width:6.06px;"/><path d="M53.177,324.582l0,10.033" style="fill:none;stroke:#444c56;stroke-width:6.06px;"/><path d="M77.258,324.582l-0,10.033" style="fill:none;stroke:#444c56;stroke-width:6.06px;"/><path d="M101.338,324.582l-0,10.033" style="fill:none;stroke:#444c56;stroke-width:6.06px;"/><path d="M125.418,324.582l0,10.033" style="fill:none;stroke:#444c56;stroke-width:6.06px;"/><path d="M149.498,324.582l0,10.033" style="fill:none;stroke:#444c56;stroke-width:6.06px;"/><path d="M173.579,324.582l-0,10.033" style="fill:none;stroke:#444c56;stroke-width:6.06px;"/><path d="M197.659,324.582l-0,10.033" style="fill:none;stroke:#444c56;stroke-width:6.06px;"/><path d="M221.739,324.582l0,10.033" style="fill:none;stroke:#444c56;stroke-width:6.06px;"/><path d="M245.819,324.582l0,10.033" style="fill:none;stroke:#444c56;stroke-width:6.06px;"/><path d="M269.9,324.582l-0,10.033" style="fill:none;stroke:#444c56;stroke-width:6.06px;"/><path d="M293.98,324.582l-0,10.033" style="fill:none;stroke:#444c56;stroke-width:6.06px;"/><path d="M318.06,324.582l0,10.033" style="fill:none;stroke:#444c56;stroke-width:6.06px;"/><path d="M342.14,324.582l0,10.033" style="fill:none;stroke:#444c56;stroke-width:6.06px;"/><path d="M366.221,324.582l-0,10.033" style="fill:none;stroke:#444c56;stroke-width:6.06px;"/><path d="M390.301,324.582l0,10.033" style="fill:none;stroke:#444c56;stroke-width:6.06px;"/><path d="M414.381,324.582l0,10.033" style="fill:none;stroke:#444c56;stroke-width:6.06px;"/><path d="M438.462,324.582l-0,10.033" style="fill:none;stroke:#444c56;stroke-width:6.06px;"/><path d="M462.542,324.582l-0,10.033" style="fill:none;stroke:#444c56;stroke-width:6.06px;"/><path d="M486.622,324.582l0,10.033" style="fill:none;stroke:#444c56;stroke-width:6.06px;"/><path d="M510.702,324.582l0,10.033" style="fill:none;stroke:#444c56;stroke-width:6.06px;"/><path d="M534.783,324.582l-0,10.033" style="fill:none;stroke:#444c56;stroke-width:6.06px;"/><path d="M558.863,324.582l-0,10.033" style="fill:none;stroke:#444c56;stroke-width:6.06px;"/><path d="M582.943,324.582l0,10.033" style="fill:none;stroke:#444c56;stroke-width:6.06px;"/><path d="M607.023,324.582l0,10.033" style="fill:none;stroke:#444c56;stroke-width:6.06px;"/><path d="M631.104,324.582l-0,10.033" style="fill:none;stroke:#444c56;stroke-width:6.06px;"/><path d="M655.184,324.582l-0,10.033" style="fill:none;stroke:#444c56;stroke-width:6.06px;"/><path d="M679.264,324.582l0,10.033" style="fill:none;stroke:#444c56;stroke-width:6.06px;"/><path d="M703.344,324.582l0,10.033" style="fill:none;stroke:#444c56;stroke-width:6.06px;"/><path d="M727.425,324.582l-0,10.033" style="fill:none;stroke:#444c56;stroke-width:6.06px;"/><path d="M751.505,324.582l0,10.033" style="fill:none;stroke:#444c56;stroke-width:6.06px;"/><path d="M775.585,324.582l0,10.033" style="fill:none;stroke:#444c56;stroke-width:6.06px;"/><path d="M799.666,324.582l-0,10.033" style="fill:none;stroke:#444c56;stroke-width:6.06px;"/><path d="M823.746,324.582l-0,10.033" style="fill:none;stroke:#444c56;stroke-width:6.06px;"/><path d="M847.826,324.582l0,10.033" style="fill:none;stroke:#444c56;stroke-width:6.06px;"/><path d="M871.906,324.582l0,10.033" style="fill:none;stroke:#444c56;stroke-width:6.06px;"/><path d="M895.987,324.582l-0,10.033" style="fill:none;stroke:#444c56;stroke-width:6.06px;"/><path d="M920.067,324.582l-0,10.033" style="fill:none;stroke:#444c56;stroke-width:6.06px;"/><path d="M944.147,324.582l0,10.033" style="fill:none;stroke:#444c56;stroke-width:6.06px;"/><path d="M968.227,324.582l0,10.033" style="fill:none;stroke:#444c56;stroke-width:6.06px;"/><path d="M992.308,324.582l-0,10.033" style="fill:none;stroke:#444c56;stroke-width:6.06px;"/><path d="M1016.39,324.582l-0,10.033" style="fill:none;stroke:#444c56;stroke-width:6.06px;"/><path d="M1040.47,324.582l0,10.033" style="fill:none;stroke:#444c56;stroke-width:6.06px;"/><path d="M1064.55,324.582l0,10.033" style="fill:none;stroke:#444c56;stroke-width:6.06px;"/><path d="M1088.63,324.582l-0,10.033" style="fill:none;stroke:#444c56;stroke-width:6.06px;"/><path d="M1112.71,324.582l0,10.033" style="fill:none;stroke:#444c56;stroke-width:6.06px;"/><path d="M1136.79,324.582l0,10.033" style="fill:none;stroke:#444c56;stroke-width:6.06px;"/><path d="M1160.87,324.582l-0,10.033" style="fill:none;stroke:#444c56;stroke-width:6.06px;"/><path d="M1184.95,324.582l-0,10.033" style="fill:none;stroke:#444c56;stroke-width:6.06px;"/><path d="M1209.03,324.582l0,10.033" style="fill:none;stroke:#444c56;stroke-width:6.06px;"/><path d="M1233.11,324.582l0,10.033" style="fill:none;stroke:#444c56;stroke-width:6.06px;"/><path d="M1257.19,324.582l-0,10.033" style="fill:none;stroke:#444c56;stroke-width:6.06px;"/><path d="M1281.27,324.582l-0,10.033" style="fill:none;stroke:#444c56;stroke-width:6.06px;"/><path d="M1305.35,324.582l0,10.033" style="fill:none;stroke:#444c56;stroke-width:6.06px;"/><path d="M1329.43,324.582l0,10.033" style="fill:none;stroke:#444c56;stroke-width:6.06px;"/><path d="M1353.51,324.582l-0,10.033" style="fill:none;stroke:#444c56;stroke-width:6.06px;"/><path d="M1377.59,324.582l-0,10.033" style="fill:none;stroke:#444c56;stroke-width:6.06px;"/><path d="M1401.67,324.582l0,10.033" style="fill:none;stroke:#444c56;stroke-width:6.06px;"/><path d="M1425.75,324.582l-0,10.033" style="fill:none;stroke:#444c56;stroke-width:6.06px;"/><path d="M1449.83,324.582l-0,10.033" style="fill:none;stroke:#444c56;stroke-width:6.06px;"/><path d="M1473.91,324.582l0,10.033" style="fill:none;stroke:#444c56;stroke-width:6.06px;"/><path d="M1497.99,324.582l0,10.033" style="fill:none;stroke:#444c56;stroke-width:6.06px;"/><path d="M1522.07,324.582l-0,10.033" style="fill:none;stroke:#444c56;stroke-width:6.06px;"/><path d="M1546.15,324.582l-0,10.033" style="fill:none;stroke:#444c56;stroke-width:6.06px;"/><path d="M1570.23,324.582l0,10.033" style="fill:none;stroke:#444c56;stroke-width:6.06px;"/><path d="M1594.31,324.582l0,10.033" style="fill:none;stroke:#444c56;stroke-width:6.06px;"/><path d="M1618.39,324.582l-0,10.033" style="fill:none;stroke:#444c56;stroke-width:6.06px;"/><path d="M1642.48,324.582l-0,10.033" style="fill:none;stroke:#444c56;stroke-width:6.06px;"/><path d="M1666.56,324.582l0,10.033" style="fill:none;stroke:#444c56;stroke-width:6.06px;"/><path d="M1690.63,324.582l0,10.033" style="fill:none;stroke:#444c56;stroke-width:6.06px;"/><path d="M1714.72,324.582l-0,10.033" style="fill:none;stroke:#444c56;stroke-width:6.06px;"/><path d="M1738.8,324.582l-0,10.033" style="fill:none;stroke:#444c56;stroke-width:6.06px;"/><path d="M1762.88,324.582l0,10.033" style="fill:none;stroke:#444c56;stroke-width:6.06px;"/><path d="M1786.96,324.582l-0,10.033" style="fill:none;stroke:#444c56;stroke-width:6.06px;"/><path d="M1811.04,324.582l-0,10.033" style="fill:none;stroke:#444c56;stroke-width:6.06px;"/><path d="M1835.12,324.582l0,10.033" style="fill:none;stroke:#444c56;stroke-width:6.06px;"/><path d="M1859.2,324.582l0,10.033" style="fill:none;stroke:#444c56;stroke-width:6.06px;"/><path d="M1883.28,324.582l-0,10.033" style="fill:none;stroke:#444c56;stroke-width:6.06px;"/><path d="M1907.36,324.582l-0,10.033" style="fill:none;stroke:#444c56;stroke-width:6.06px;"/></g><g><text x="85.212px" y="578.818px" style="font-family:'SegoeUI', 'Segoe UI', sans-serif;font-size:50px;fill:#adbac7;">A</text><text x="279.649px" y="578.818px" style="font-family:'SegoeUI', 'Segoe UI', sans-serif;font-size:50px;fill:#adbac7;">B</text><text x="471.144px" y="578.818px" style="font-family:'SegoeUI', 'Segoe UI', sans-serif;font-size:50px;fill:#adbac7;">C</text><text x="661.735px" y="578.818px" style="font-family:'SegoeUI', 'Segoe UI', sans-serif;font-size:50px;fill:#adbac7;">D</text><text x="859.26px" y="578.818px" style="font-family:'SegoeUI', 'Segoe UI', sans-serif;font-size:50px;fill:#adbac7;">E</text><text x="1052.34px" y="578.818px" style="font-family:'SegoeUI', 'Segoe UI', sans-serif;font-size:50px;fill:#adbac7;">F</text><text x="1240.04px" y="578.818px" style="font-family:'SegoeUI', 'Segoe UI', sans-serif;font-size:50px;fill:#adbac7;">G</text><text x="1432.08px" y="578.818px" style="font-family:'SegoeUI', 'Segoe UI', sans-serif;font-size:50px;fill:#adbac7;">H</text><text x="1635.82px" y="578.818px" style="font-family:'SegoeUI', 'Segoe UI', sans-serif;font-size:50px;fill:#adbac7;">I</text><text x="1826.19px" y="578.818px" style="font-family:'SegoeUI', 'Segoe UI', sans-serif;font-size:50px;fill:#adbac7;">J</text></g><g><g><text x="11.442px" y="519.1px" style="font-family:'SegoeUI', 'Segoe UI', sans-serif;font-size:20.833px;fill:#adbac7;">0</text><text x="35.522px" y="519.1px" style="font-family:'SegoeUI', 'Segoe UI', sans-serif;font-size:20.833px;fill:#adbac7;">1</text><text x="59.602px" y="519.1px" style="font-family:'SegoeUI', 'Segoe UI', sans-serif;font-size:20.833px;fill:#adbac7;">2</text><text x="83.682px" y="519.1px" style="font-family:'SegoeUI', 'Segoe UI', sans-serif;font-size:20.833px;fill:#adbac7;">3</text><text x="107.763px" y="519.1px" style="font-family:'SegoeUI', 'Segoe UI', sans-serif;font-size:20.833px;fill:#adbac7;">4</text><text x="131.843px" y="519.1px" style="font-family:'SegoeUI', 'Segoe UI', sans-serif;font-size:20.833px;fill:#adbac7;">5</text><text x="155.923px" y="519.1px" style="font-family:'SegoeUI', 'Segoe UI', sans-serif;font-size:20.833px;fill:#adbac7;">6</text><text x="180.003px" y="519.1px" style="font-family:'SegoeUI', 'Segoe UI', sans-serif;font-size:20.833px;fill:#adbac7;">7</text></g><g><text x="204.084px" y="519.1px" style="font-family:'SegoeUI', 'Segoe UI', sans-serif;font-size:20.833px;fill:#adbac7;">0</text><text x="228.164px" y="519.1px" style="font-family:'SegoeUI', 'Segoe UI', sans-serif;font-size:20.833px;fill:#adbac7;">1</text><text x="252.244px" y="519.1px" style="font-family:'SegoeUI', 'Segoe UI', sans-serif;font-size:20.833px;fill:#adbac7;">2</text><text x="276.325px" y="519.1px" style="font-family:'SegoeUI', 'Segoe UI', sans-serif;font-size:20.833px;fill:#adbac7;">3</text><text x="300.405px" y="519.1px" style="font-family:'SegoeUI', 'Segoe UI', sans-serif;font-size:20.833px;fill:#adbac7;">4</text><text x="324.485px" y="519.1px" style="font-family:'SegoeUI', 'Segoe UI', sans-serif;font-size:20.833px;fill:#adbac7;">5</text><text x="348.565px" y="519.1px" style="font-family:'SegoeUI', 'Segoe UI', sans-serif;font-size:20.833px;fill:#adbac7;">6</text><text x="372.646px" y="519.1px" style="font-family:'SegoeUI', 'Segoe UI', sans-serif;font-size:20.833px;fill:#adbac7;">7</text></g><g><text x="396.726px" y="519.1px" style="font-family:'SegoeUI', 'Segoe UI', sans-serif;font-size:20.833px;fill:#adbac7;">0</text><text x="420.806px" y="519.1px" style="font-family:'SegoeUI', 'Segoe UI', sans-serif;font-size:20.833px;fill:#adbac7;">1</text><text x="444.886px" y="519.1px" style="font-family:'SegoeUI', 'Segoe UI', sans-serif;font-size:20.833px;fill:#adbac7;">2</text><text x="468.967px" y="519.1px" style="font-family:'SegoeUI', 'Segoe UI', sans-serif;font-size:20.833px;fill:#adbac7;">3</text><text x="493.047px" y="519.1px" style="font-family:'SegoeUI', 'Segoe UI', sans-serif;font-size:20.833px;fill:#adbac7;">4</text><text x="517.127px" y="519.1px" style="font-family:'SegoeUI', 'Segoe UI', sans-serif;font-size:20.833px;fill:#adbac7;">5</text><text x="541.208px" y="519.1px" style="font-family:'SegoeUI', 'Segoe UI', sans-serif;font-size:20.833px;fill:#adbac7;">6</text><text x="565.288px" y="519.1px" style="font-family:'SegoeUI', 'Segoe UI', sans-serif;font-size:20.833px;fill:#adbac7;">7</text></g><g><text x="589.368px" y="519.1px" style="font-family:'SegoeUI', 'Segoe UI', sans-serif;font-size:20.833px;fill:#adbac7;">0</text><text x="613.448px" y="519.1px" style="font-family:'SegoeUI', 'Segoe UI', sans-serif;font-size:20.833px;fill:#adbac7;">1</text><text x="637.529px" y="519.1px" style="font-family:'SegoeUI', 'Segoe UI', sans-serif;font-size:20.833px;fill:#adbac7;">2</text><text x="661.609px" y="519.1px" style="font-family:'SegoeUI', 'Segoe UI', sans-serif;font-size:20.833px;fill:#adbac7;">3</text><text x="685.689px" y="519.1px" style="font-family:'SegoeUI', 'Segoe UI', sans-serif;font-size:20.833px;fill:#adbac7;">4</text><text x="709.769px" y="519.1px" style="font-family:'SegoeUI', 'Segoe UI', sans-serif;font-size:20.833px;fill:#adbac7;">5</text><text x="733.85px" y="519.1px" style="font-family:'SegoeUI', 'Segoe UI', sans-serif;font-size:20.833px;fill:#adbac7;">6</text><text x="757.93px" y="519.1px" style="font-family:'SegoeUI', 'Segoe UI', sans-serif;font-size:20.833px;fill:#adbac7;">7</text></g><g><text x="782.01px" y="519.1px" style="font-family:'SegoeUI', 'Segoe UI', sans-serif;font-size:20.833px;fill:#adbac7;">0</text><text x="806.09px" y="519.1px" style="font-family:'SegoeUI', 'Segoe UI', sans-serif;font-size:20.833px;fill:#adbac7;">1</text><text x="830.171px" y="519.1px" style="font-family:'SegoeUI', 'Segoe UI', sans-serif;font-size:20.833px;fill:#adbac7;">2</text><text x="854.251px" y="519.1px" style="font-family:'SegoeUI', 'Segoe UI', sans-serif;font-size:20.833px;fill:#adbac7;">3</text><text x="878.331px" y="519.1px" style="font-family:'SegoeUI', 'Segoe UI', sans-serif;font-size:20.833px;fill:#adbac7;">4</text><text x="902.412px" y="519.1px" style="font-family:'SegoeUI', 'Segoe UI', sans-serif;font-size:20.833px;fill:#adbac7;">5</text><text x="926.492px" y="519.1px" style="font-family:'SegoeUI', 'Segoe UI', sans-serif;font-size:20.833px;fill:#adbac7;">6</text><text x="950.572px" y="519.1px" style="font-family:'SegoeUI', 'Segoe UI', sans-serif;font-size:20.833px;fill:#adbac7;">7</text></g><g><text x="974.652px" y="519.1px" style="font-family:'SegoeUI', 'Segoe UI', sans-serif;font-size:20.833px;fill:#adbac7;">0</text><text x="998.733px" y="519.1px" style="font-family:'SegoeUI', 'Segoe UI', sans-serif;font-size:20.833px;fill:#adbac7;">1</text><text x="1022.81px" y="519.1px" style="font-family:'SegoeUI', 'Segoe UI', sans-serif;font-size:20.833px;fill:#adbac7;">2</text><text x="1046.89px" y="519.1px" style="font-family:'SegoeUI', 'Segoe UI', sans-serif;font-size:20.833px;fill:#adbac7;">3</text><text x="1070.97px" y="519.1px" style="font-family:'SegoeUI', 'Segoe UI', sans-serif;font-size:20.833px;fill:#adbac7;">4</text><text x="1095.05px" y="519.1px" style="font-family:'SegoeUI', 'Segoe UI', sans-serif;font-size:20.833px;fill:#adbac7;">5</text><text x="1119.13px" y="519.1px" style="font-family:'SegoeUI', 'Segoe UI', sans-serif;font-size:20.833px;fill:#adbac7;">6</text><text x="1143.21px" y="519.1px" style="font-family:'SegoeUI', 'Segoe UI', sans-serif;font-size:20.833px;fill:#adbac7;">7</text></g><g><text x="1167.29px" y="519.1px" style="font-family:'SegoeUI', 'Segoe UI', sans-serif;font-size:20.833px;fill:#adbac7;">0</text><text x="1191.38px" y="519.1px" style="font-family:'SegoeUI', 'Segoe UI', sans-serif;font-size:20.833px;fill:#adbac7;">1</text><text x="1215.45px" y="519.1px" style="font-family:'SegoeUI', 'Segoe UI', sans-serif;font-size:20.833px;fill:#adbac7;">2</text><text x="1239.54px" y="519.1px" style="font-family:'SegoeUI', 'Segoe UI', sans-serif;font-size:20.833px;fill:#adbac7;">3</text><text x="1263.62px" y="519.1px" style="font-family:'SegoeUI', 'Segoe UI', sans-serif;font-size:20.833px;fill:#adbac7;">4</text><text x="1287.7px" y="519.1px" style="font-family:'SegoeUI', 'Segoe UI', sans-serif;font-size:20.833px;fill:#adbac7;">5</text><text x="1311.78px" y="519.1px" style="font-family:'SegoeUI', 'Segoe UI', sans-serif;font-size:20.833px;fill:#adbac7;">6</text><text x="1335.86px" y="519.1px" style="font-family:'SegoeUI', 'Segoe UI', sans-serif;font-size:20.833px;fill:#adbac7;">7</text></g><g><text x="1359.94px" y="519.1px" style="font-family:'SegoeUI', 'Segoe UI', sans-serif;font-size:20.833px;fill:#adbac7;">0</text><text x="1384.02px" y="519.1px" style="font-family:'SegoeUI', 'Segoe UI', sans-serif;font-size:20.833px;fill:#adbac7;">1</text><text x="1408.1px" y="519.1px" style="font-family:'SegoeUI', 'Segoe UI', sans-serif;font-size:20.833px;fill:#adbac7;">2</text><text x="1432.18px" y="519.1px" style="font-family:'SegoeUI', 'Segoe UI', sans-serif;font-size:20.833px;fill:#adbac7;">3</text><text x="1456.26px" y="519.1px" style="font-family:'SegoeUI', 'Segoe UI', sans-serif;font-size:20.833px;fill:#adbac7;">4</text><text x="1480.34px" y="519.1px" style="font-family:'SegoeUI', 'Segoe UI', sans-serif;font-size:20.833px;fill:#adbac7;">5</text><text x="1504.42px" y="519.1px" style="font-family:'SegoeUI', 'Segoe UI', sans-serif;font-size:20.833px;fill:#adbac7;">6</text><text x="1528.5px" y="519.1px" style="font-family:'SegoeUI', 'Segoe UI', sans-serif;font-size:20.833px;fill:#adbac7;">7</text></g><g><text x="1552.58px" y="519.1px" style="font-family:'SegoeUI', 'Segoe UI', sans-serif;font-size:20.833px;fill:#adbac7;">0</text><text x="1576.66px" y="519.1px" style="font-family:'SegoeUI', 'Segoe UI', sans-serif;font-size:20.833px;fill:#adbac7;">1</text><text x="1600.74px" y="519.1px" style="font-family:'SegoeUI', 'Segoe UI', sans-serif;font-size:20.833px;fill:#adbac7;">2</text><text x="1624.82px" y="519.1px" style="font-family:'SegoeUI', 'Segoe UI', sans-serif;font-size:20.833px;fill:#adbac7;">3</text><text x="1648.9px" y="519.1px" style="font-family:'SegoeUI', 'Segoe UI', sans-serif;font-size:20.833px;fill:#adbac7;">4</text><text x="1672.98px" y="519.1px" style="font-family:'SegoeUI', 'Segoe UI', sans-serif;font-size:20.833px;fill:#adbac7;">5</text><text x="1697.06px" y="519.1px" style="font-family:'SegoeUI', 'Segoe UI', sans-serif;font-size:20.833px;fill:#adbac7;">6</text><text x="1721.14px" y="519.1px" style="font-family:'SegoeUI', 'Segoe UI', sans-serif;font-size:20.833px;fill:#adbac7;">7</text></g><g><text x="1745.22px" y="519.1px" style="font-family:'SegoeUI', 'Segoe UI', sans-serif;font-size:20.833px;fill:#adbac7;">0</text><text x="1769.3px" y="519.1px" style="font-family:'SegoeUI', 'Segoe UI', sans-serif;font-size:20.833px;fill:#adbac7;">1</text><text x="1793.38px" y="519.1px" style="font-family:'SegoeUI', 'Segoe UI', sans-serif;font-size:20.833px;fill:#adbac7;">2</text><text x="1817.46px" y="519.1px" style="font-family:'SegoeUI', 'Segoe UI', sans-serif;font-size:20.833px;fill:#adbac7;">3</text><text x="1841.54px" y="519.1px" style="font-family:'SegoeUI', 'Segoe UI', sans-serif;font-size:20.833px;fill:#adbac7;">4</text><text x="1865.62px" y="519.1px" style="font-family:'SegoeUI', 'Segoe UI', sans-serif;font-size:20.833px;fill:#adbac7;">5</text><text x="1889.7px" y="519.1px" style="font-family:'SegoeUI', 'Segoe UI', sans-serif;font-size:20.833px;fill:#adbac7;">6</text><text x="1913.78px" y="519.1px" style="font-family:'SegoeUI', 'Segoe UI', sans-serif;font-size:20.833px;fill:#adbac7;">7</text></g></g><g><g><text x="11.442px" y="153.883px" style="font-family:'SegoeUI', 'Segoe UI', sans-serif;font-size:20.833px;fill:#adbac7;">0</text><text x="35.522px" y="153.883px" style="font-family:'SegoeUI', 'Segoe UI', sans-serif;font-size:20.833px;fill:#adbac7;">0</text><text x="59.602px" y="153.883px" style="font-family:'SegoeUI', 'Segoe UI', sans-serif;font-size:20.833px;fill:#adbac7;">0</text><text x="83.682px" y="153.883px" style="font-family:'SegoeUI', 'Segoe UI', sans-serif;font-size:20.833px;fill:#adbac7;">0</text><text x="107.763px" y="153.883px" style="font-family:'SegoeUI', 'Segoe UI', sans-serif;font-size:20.833px;fill:#adbac7;">0</text><text x="131.843px" y="153.883px" style="font-family:'SegoeUI', 'Segoe UI', sans-serif;font-size:20.833px;fill:#adbac7;">0</text><text x="155.923px" y="153.883px" style="font-family:'SegoeUI', 'Segoe UI', sans-serif;font-size:20.833px;fill:#adbac7;">0</text><text x="180.003px" y="153.883px" style="font-family:'SegoeUI', 'Segoe UI', sans-serif;font-size:20.833px;fill:#adbac7;">0</text></g><g><text x="204.084px" y="153.883px" style="font-family:'SegoeUI', 'Segoe UI', sans-serif;font-size:20.833px;fill:#adbac7;">0</text><text x="228.164px" y="153.883px" style="font-family:'SegoeUI', 'Segoe UI', sans-serif;font-size:20.833px;fill:#adbac7;">0</text><text x="252.244px" y="153.883px" style="font-family:'SegoeUI', 'Segoe UI', sans-serif;font-size:20.833px;fill:#adbac7;">0</text><text x="276.325px" y="153.883px" style="font-family:'SegoeUI', 'Segoe UI', sans-serif;font-size:20.833px;fill:#adbac7;">0</text><text x="300.405px" y="153.883px" style="font-family:'SegoeUI', 'Segoe UI', sans-serif;font-size:20.833px;fill:#adbac7;">0</text><text x="324.485px" y="153.883px" style="font-family:'SegoeUI', 'Segoe UI', sans-serif;font-size:20.833px;fill:#adbac7;">0</text><text x="348.565px" y="153.883px" style="font-family:'SegoeUI', 'Segoe UI', sans-serif;font-size:20.833px;fill:#adbac7;">0</text><text x="372.646px" y="153.883px" style="font-family:'SegoeUI', 'Segoe UI', sans-serif;font-size:20.833px;fill:#adbac7;">0</text></g><g><text x="396.726px" y="153.883px" style="font-family:'SegoeUI', 'Segoe UI', sans-serif;font-size:20.833px;fill:#adbac7;">0</text><text x="420.806px" y="153.883px" style="font-family:'SegoeUI', 'Segoe UI', sans-serif;font-size:20.833px;fill:#adbac7;">0</text><text x="444.886px" y="153.883px" style="font-family:'SegoeUI', 'Segoe UI', sans-serif;font-size:20.833px;fill:#adbac7;">0</text><text x="468.967px" y="153.883px" style="font-family:'SegoeUI', 'Segoe UI', sans-serif;font-size:20.833px;fill:#adbac7;">0</text><text x="493.047px" y="153.883px" style="font-family:'SegoeUI', 'Segoe UI', sans-serif;font-size:20.833px;fill:#adbac7;">0</text><text x="517.127px" y="153.883px" style="font-family:'SegoeUI', 'Segoe UI', sans-serif;font-size:20.833px;fill:#adbac7;">0</text><text x="541.208px" y="153.883px" style="font-family:'SegoeUI', 'Segoe UI', sans-serif;font-size:20.833px;fill:#adbac7;">0</text><text x="565.288px" y="153.883px" style="font-family:'SegoeUI', 'Segoe UI', sans-serif;font-size:20.833px;fill:#adbac7;">0</text></g><g><text x="589.368px" y="153.883px" style="font-family:'SegoeUI', 'Segoe UI', sans-serif;font-size:20.833px;fill:#adbac7;">0</text><text x="613.448px" y="153.883px" style="font-family:'SegoeUI', 'Segoe UI', sans-serif;font-size:20.833px;fill:#adbac7;">0</text><text x="637.529px" y="153.883px" style="font-family:'SegoeUI', 'Segoe UI', sans-serif;font-size:20.833px;fill:#adbac7;">0</text><text x="661.609px" y="153.883px" style="font-family:'SegoeUI', 'Segoe UI', sans-serif;font-size:20.833px;fill:#adbac7;">0</text><text x="685.689px" y="153.883px" style="font-family:'SegoeUI', 'Segoe UI', sans-serif;font-size:20.833px;fill:#adbac7;">0</text><text x="709.769px" y="153.883px" style="font-family:'SegoeUI', 'Segoe UI', sans-serif;font-size:20.833px;fill:#adbac7;">0</text><text x="733.85px" y="153.883px" style="font-family:'SegoeUI', 'Segoe UI', sans-serif;font-size:20.833px;fill:#adbac7;">0</text><text x="757.93px" y="153.883px" style="font-family:'SegoeUI', 'Segoe UI', sans-serif;font-size:20.833px;fill:#adbac7;">0</text></g><g><text x="782.01px" y="153.883px" style="font-family:'SegoeUI', 'Segoe UI', sans-serif;font-size:20.833px;fill:#adbac7;">0</text><text x="806.09px" y="153.883px" style="font-family:'SegoeUI', 'Segoe UI', sans-serif;font-size:20.833px;fill:#adbac7;">0</text><text x="830.171px" y="153.883px" style="font-family:'SegoeUI', 'Segoe UI', sans-serif;font-size:20.833px;fill:#adbac7;">0</text><text x="854.251px" y="153.883px" style="font-family:'SegoeUI', 'Segoe UI', sans-serif;font-size:20.833px;fill:#adbac7;">0</text><text x="878.331px" y="153.883px" style="font-family:'SegoeUI', 'Segoe UI', sans-serif;font-size:20.833px;fill:#adbac7;">0</text><text x="902.412px" y="153.883px" style="font-family:'SegoeUI', 'Segoe UI', sans-serif;font-size:20.833px;fill:#adbac7;">0</text><text x="926.492px" y="153.883px" style="font-family:'SegoeUI', 'Segoe UI', sans-serif;font-size:20.833px;fill:#adbac7;">0</text><text x="950.572px" y="153.883px" style="font-family:'SegoeUI', 'Segoe UI', sans-serif;font-size:20.833px;fill:#adbac7;">0</text></g><g><text x="974.652px" y="153.883px" style="font-family:'SegoeUI', 'Segoe UI', sans-serif;font-size:20.833px;fill:#adbac7;">0</text><text x="998.733px" y="153.883px" style="font-family:'SegoeUI', 'Segoe UI', sans-serif;font-size:20.833px;fill:#adbac7;">0</text><text x="1022.81px" y="153.883px" style="font-family:'SegoeUI', 'Segoe UI', sans-serif;font-size:20.833px;fill:#adbac7;">0</text><text x="1046.89px" y="153.883px" style="font-family:'SegoeUI', 'Segoe UI', sans-serif;font-size:20.833px;fill:#adbac7;">0</text><text x="1070.97px" y="153.883px" style="font-family:'SegoeUI', 'Segoe UI', sans-serif;font-size:20.833px;fill:#adbac7;">0</text><text x="1095.05px" y="153.883px" style="font-family:'SegoeUI', 'Segoe UI', sans-serif;font-size:20.833px;fill:#adbac7;">0</text><text x="1119.13px" y="153.883px" style="font-family:'SegoeUI', 'Segoe UI', sans-serif;font-size:20.833px;fill:#adbac7;">0</text><text x="1143.21px" y="153.883px" style="font-family:'SegoeUI', 'Segoe UI', sans-serif;font-size:20.833px;fill:#adbac7;">0</text></g><g><text x="1167.29px" y="153.883px" style="font-family:'SegoeUI', 'Segoe UI', sans-serif;font-size:20.833px;fill:#adbac7;">0</text><text x="1191.38px" y="153.883px" style="font-family:'SegoeUI', 'Segoe UI', sans-serif;font-size:20.833px;fill:#adbac7;">0</text><text x="1215.45px" y="153.883px" style="font-family:'SegoeUI', 'Segoe UI', sans-serif;font-size:20.833px;fill:#adbac7;">0</text><text x="1239.54px" y="153.883px" style="font-family:'SegoeUI', 'Segoe UI', sans-serif;font-size:20.833px;fill:#adbac7;">0</text><text x="1263.62px" y="153.883px" style="font-family:'SegoeUI', 'Segoe UI', sans-serif;font-size:20.833px;fill:#adbac7;">0</text><text x="1287.7px" y="153.883px" style="font-family:'SegoeUI', 'Segoe UI', sans-serif;font-size:20.833px;fill:#adbac7;">0</text><text x="1311.78px" y="153.883px" style="font-family:'SegoeUI', 'Segoe UI', sans-serif;font-size:20.833px;fill:#adbac7;">0</text><text x="1335.86px" y="153.883px" style="font-family:'SegoeUI', 'Segoe UI', sans-serif;font-size:20.833px;fill:#adbac7;">0</text></g><g><text x="1359.94px" y="153.883px" style="font-family:'SegoeUI', 'Segoe UI', sans-serif;font-size:20.833px;fill:#adbac7;">0</text><text x="1384.02px" y="153.883px" style="font-family:'SegoeUI', 'Segoe UI', sans-serif;font-size:20.833px;fill:#adbac7;">0</text><text x="1408.1px" y="153.883px" style="font-family:'SegoeUI', 'Segoe UI', sans-serif;font-size:20.833px;fill:#adbac7;">0</text><text x="1432.18px" y="153.883px" style="font-family:'SegoeUI', 'Segoe UI', sans-serif;font-size:20.833px;fill:#adbac7;">0</text><text x="1456.26px" y="153.883px" style="font-family:'SegoeUI', 'Segoe UI', sans-serif;font-size:20.833px;fill:#adbac7;">0</text><text x="1480.34px" y="153.883px" style="font-family:'SegoeUI', 'Segoe UI', sans-serif;font-size:20.833px;fill:#adbac7;">0</text><text x="1504.42px" y="153.883px" style="font-family:'SegoeUI', 'Segoe UI', sans-serif;font-size:20.833px;fill:#adbac7;">0</text><text x="1528.5px" y="153.883px" style="font-family:'SegoeUI', 'Segoe UI', sans-serif;font-size:20.833px;fill:#adbac7;">0</text></g><g><text x="1552.58px" y="153.883px" style="font-family:'SegoeUI', 'Segoe UI', sans-serif;font-size:20.833px;fill:#adbac7;">0</text><text x="1576.66px" y="153.883px" style="font-family:'SegoeUI', 'Segoe UI', sans-serif;font-size:20.833px;fill:#adbac7;">0</text><text x="1600.74px" y="153.883px" style="font-family:'SegoeUI', 'Segoe UI', sans-serif;font-size:20.833px;fill:#adbac7;">1</text><text x="1624.82px" y="153.883px" style="font-family:'SegoeUI', 'Segoe UI', sans-serif;font-size:20.833px;fill:#adbac7;">1</text><text x="1648.9px" y="153.883px" style="font-family:'SegoeUI', 'Segoe UI', sans-serif;font-size:20.833px;fill:#adbac7;">1</text><text x="1672.98px" y="153.883px" style="font-family:'SegoeUI', 'Segoe UI', sans-serif;font-size:20.833px;fill:#adbac7;">1</text><text x="1697.06px" y="153.883px" style="font-family:'SegoeUI', 'Segoe UI', sans-serif;font-size:20.833px;fill:#adbac7;">1</text><text x="1721.14px" y="153.883px" style="font-family:'SegoeUI', 'Segoe UI', sans-serif;font-size:20.833px;fill:#adbac7;">1</text></g><g><text x="1745.22px" y="153.883px" style="font-family:'SegoeUI', 'Segoe UI', sans-serif;font-size:20.833px;fill:#adbac7;">1</text><text x="1769.3px" y="153.883px" style="font-family:'SegoeUI', 'Segoe UI', sans-serif;font-size:20.833px;fill:#adbac7;">1</text><text x="1793.38px" y="153.883px" style="font-family:'SegoeUI', 'Segoe UI', sans-serif;font-size:20.833px;fill:#adbac7;">1</text><text x="1817.46px" y="153.883px" style="font-family:'SegoeUI', 'Segoe UI', sans-serif;font-size:20.833px;fill:#adbac7;">1</text><text x="1841.54px" y="153.883px" style="font-family:'SegoeUI', 'Segoe UI', sans-serif;font-size:20.833px;fill:#adbac7;">1</text><text x="1865.62px" y="153.883px" style="font-family:'SegoeUI', 'Segoe UI', sans-serif;font-size:20.833px;fill:#adbac7;">1</text><text x="1889.7px" y="153.883px" style="font-family:'SegoeUI', 'Segoe UI', sans-serif;font-size:20.833px;fill:#adbac7;">0</text><text x="1913.78px" y="153.883px" style="font-family:'SegoeUI', 'Segoe UI', sans-serif;font-size:20.833px;fill:#adbac7;">1</text></g></g><text x="1551.17px" y="128.112px" style="font-family:'SegoeUI', 'Segoe UI', sans-serif;font-size:20.833px;fill:#adbac7;">S<tspan x="1561.63px 1571.71px " y="128.112px 128.112px ">yn</tspan>c word</text><text x="11.037px" y="128.112px" style="font-family:'SegoeUI', 'Segoe UI', sans-serif;font-size:20.833px;fill:#adbac7;">Bits</text></svg>